<svg xmlns="http://www.w3.org/2000/svg" viewBox="0 0 800 4000" preserveAspectRatio="none"><defs><linearGradient id="fadeGradient" x1="0" y1="0" x2="0" y2="1"><stop offset="0%" stop-color="white" stop-opacity="0" /><stop offset="100%" stop-color="white" stop-opacity="1" /></linearGradient><mask id="fadeMask"><rect x="0" y="0" width="800" height="4000" fill="url(#fadeGradient)" /></mask></defs><g mask="url(#fadeMask)" class="wiggle"><path d="M0,0 C200,-33 600,-6 800,0" stroke="#bbb" fill="none" stroke-width="1" /><path d="M0,100 C200,137 600,143 800,100" stroke="#bbb" fill="none" stroke-width="1" /><path d="M0,200 C200,200 600,163 800,200" stroke="#bbb" fill="none" stroke-width="1" /><path d="M0,300 C200,302 600,350 800,300" stroke="#bbb" fill="none" stroke-width="1" /><path d="M0,400 C200,394 600,361 800,400" stroke="#bbb" fill="none" stroke-width="1" /><path d="M0,500 C200,532 600,521 800,500" stroke="#bbb" fill="none" stroke-width="1" /><path d="M0,600 C200,604 600,590 800,600" stroke="#bbb" fill="none" stroke-width="1" /><path d="M0,700 C200,736 600,741 800,700" stroke="#bbb" fill="none" stroke-width="1" /><path d="M0,800 C200,830 600,833 800,800" stroke="#bbb" fill="none" stroke-width="1" /><path d="M0,900 C200,876 600,911 800,900" stroke="#bbb" fill="none" stroke-width="1" /><path d="M0,1000 C200,1037 600,988 800,1000" stroke="#bbb" fill="none" stroke-width="1" /><path d="M0,1100 C200,1119 600,1132 800,1100" stroke="#bbb" fill="none" stroke-width="1" /><path d="M0,1200 C200,1189 600,1182 800,1200" stroke="#bbb" fill="none" stroke-width="1" /><path d="M0,1300 C200,1268 600,1292 800,1300" stroke="#bbb" fill="none" stroke-width="1" /><path d="M0,1400 C200,1423 600,1445 800,1400" stroke="#bbb" fill="none" stroke-width="1" /><path d="M0,1500 C200,1484 600,1496 800,1500" stroke="#bbb" fill="none" stroke-width="1" /><path d="M0,1600 C200,1562 600,1598 800,1600" stroke="#bbb" fill="none" stroke-width="1" /><path d="M0,1700 C200,1747 600,1678 800,1700" stroke="#bbb" fill="none" stroke-width="1" /><path d="M0,1800 C200,1818 600,1761 800,1800" stroke="#bbb" fill="none" stroke-width="1" /><path d="M0,1900 C200,1890 600,1886 800,1900" stroke="#bbb" fill="none" stroke-width="1" /><path d="M0,2000 C200,1972 600,2038 800,2000" stroke="#bbb" fill="none" stroke-width="1" /><path d="M0,2100 C200,2140 600,2120 800,2100" stroke="#bbb" fill="none" stroke-width="1" /><path d="M0,2200 C200,2209 600,2223 800,2200" stroke="#bbb" fill="none" stroke-width="1" /><path d="M0,2300 C200,2337 600,2259 800,2300" stroke="#bbb" fill="none" stroke-width="1" /><path d="M0,2400 C200,2444 600,2431 800,2400" stroke="#bbb" fill="none" stroke-width="1" /><path d="M0,2500 C200,2533 600,2487 800,2500" stroke="#bbb" fill="none" stroke-width="1" /><path d="M0,2600 C200,2550 600,2601 800,2600" stroke="#bbb" fill="none" stroke-width="1" /><path d="M0,2700 C200,2729 600,2742 800,2700" stroke="#bbb" fill="none" stroke-width="1" /><path d="M0,2800 C200,2793 600,2775 800,2800" stroke="#bbb" fill="none" stroke-width="1" /><path d="M0,2900 C200,2891 600,2874 800,2900" stroke="#bbb" fill="none" stroke-width="1" /><path d="M0,3000 C200,2998 600,2952 800,3000" stroke="#bbb" fill="none" stroke-width="1" /><path d="M0,3100 C200,3063 600,3105 800,3100" stroke="#bbb" fill="none" stroke-width="1" /><path d="M0,3200 C200,3177 600,3176 800,3200" stroke="#bbb" fill="none" stroke-width="1" /><path d="M0,3300 C200,3327 600,3307 800,3300" stroke="#bbb" fill="none" stroke-width="1" /><path d="M0,3400 C200,3358 600,3371 800,3400" stroke="#bbb" fill="none" stroke-width="1" /><path d="M0,3500 C200,3523 600,3484 800,3500" stroke="#bbb" fill="none" stroke-width="1" /><path d="M0,3600 C200,3571 600,3571 800,3600" stroke="#bbb" fill="none" stroke-width="1" /><path d="M0,3700 C200,3744 600,3740 800,3700" stroke="#bbb" fill="none" stroke-width="1" /><path d="M0,3800 C200,3813 600,3810 800,3800" stroke="#bbb" fill="none" stroke-width="1" /><path d="M0,3900 C200,3935 600,3890 800,3900" stroke="#bbb" fill="none" stroke-width="1" /></g></svg>